<svg xmlns="http://www.w3.org/2000/svg" width="17" height="10" viewBox="0 0 17 10">
  <g opacity=".3" transform="translate(0 .6)">
    <path d="M16.6745585,4.1013986 C16.5246053,3.93412047 12.9176911,0 8.40000033,0 C3.88230953,0 0.275428136,3.93412047 0.125442192,4.1013986 C-0.0418359392,4.28836423 -0.0418359392,4.57101112 0.125442192,4.75797675 C0.275428136,4.92525488 3.88237515,8.85937535 8.40000033,8.85937535 C12.9176255,8.85937535 16.5245725,4.92525488 16.6745585,4.75797675 C16.8418038,4.57101112 16.8418038,4.28836423 16.6745585,4.1013986 Z M8.40000033,7.87500031 C6.50045182,7.87500031 4.9546877,6.32923619 4.9546877,4.42968768 C4.9546877,2.53013916 6.50045182,0.984375039 8.40000033,0.984375039 C10.2995488,0.984375039 11.845313,2.53013916 11.845313,4.42968768 C11.845313,6.32923619 10.2995488,7.87500031 8.40000033,7.87500031 Z"/>
    <path d="M8.89218785,3.44531264 C8.89218785,2.95017199 9.1379863,2.51458604 9.51191757,2.24667196 C9.17637693,2.07489852 8.80211754,1.96875008 8.40000033,1.96875008 C7.04310497,1.96875008 5.93906274,3.07279231 5.93906274,4.42968768 C5.93906274,5.78658304 7.04310497,6.89062527 8.40000033,6.89062527 C9.61485038,6.89062527 10.6203567,6.00357211 10.8190036,4.84450332 C9.82786914,5.16360489 8.89218785,4.4140033 8.89218785,3.44531264 Z"/>
  </g>
</svg>
