<svg xmlns="http://www.w3.org/2000/svg" width="15" height="13" viewBox="0 0 15 13">
  <g fill="none" transform="translate(-1 -1.6)">
    <g transform="translate(.486 1.665)">
      <rect width="3.51" height="1" x="10" y="2.539" fill="#CC7400" transform="rotate(-109.591 11.755 2.755)"/>
      <rect width="1" height="3.51" x="13.077" y="1" fill="#CC7400" transform="rotate(-160.409 13.293 2.755)"/>
      <g transform="translate(.514 .34)">
        <circle cx="10.653" cy=".761" r="1" fill="#AA6100"/>
        <path fill="#FFF" d="M10.6524461,1.23363975 C10.3918762,1.23363975 10.1798634,1.02162688 10.1798634,0.761057016 C10.1798634,0.500459579 10.3918762,0.288446703 10.6524461,0.288446703 C10.9130435,0.288446703 11.1250564,0.500459579 11.1250564,0.761057016 C11.1250564,1.02165445 10.9130435,1.23363975 10.6524461,1.23363975 Z"/>
        <path fill="#57565C" d="M10.6524461,0.945193052 C10.5509204,0.945193052 10.4683376,0.862610328 10.4683376,0.761084589 C10.4683376,0.659531276 10.5509204,0.576948552 10.6524461,0.576948552 C10.7539994,0.576948552 10.8365821,0.659531276 10.8365821,0.761084589 C10.8365821,0.862610328 10.7539718,0.945193052 10.6524461,0.945193052 Z"/>
        <circle cx="13.357" cy=".761" r="1" fill="#AA6100"/>
        <path fill="#FFF" d="M13.3566098,1.23363975 C13.0960399,1.23363975 12.8840271,1.02162688 12.8840271,0.761057016 C12.8840271,0.500459579 13.0960399,0.288446703 13.3566098,0.288446703 C13.6172072,0.288446703 13.8292201,0.500459579 13.8292201,0.761057016 C13.8292201,1.02165445 13.6172072,1.23363975 13.3566098,1.23363975 Z"/>
      </g>
      <g transform="translate(.514 .917)">
        <path fill="#57565C" d="M13.3566098,0.3682445 C13.2550841,0.3682445 13.1725013,0.285661776 13.1725013,0.184136037 C13.1725013,0.0825827239 13.2550841,6.02295991e-14 13.3566098,6.02295991e-14 C13.4581631,6.02295991e-14 13.5407458,0.0825827239 13.5407458,0.184136037 C13.5407458,0.285661776 13.4581355,0.3682445 13.3566098,0.3682445 Z"/>
        <path fill="#CC7400" d="M13.5055069,5.55394324 C13.4858469,4.40015642 13.297437,3.50283102 12.9455712,2.88681078 C12.9334388,2.86557916 12.9199554,2.84514717 12.9052587,2.82559754 C12.8529793,2.75633283 12.5681171,2.41075377 12.0889719,2.41075377 C11.8812881,2.41075377 11.5698175,2.47990819 11.2655711,2.80924644 C11.0279149,3.06653505 10.8209755,3.42747256 10.7906171,3.92313435 C10.6510398,6.20170061 8.76120521,6.06937524 7.05059852,6.97773006 C3.97700465,8.60989005 0.298943845,9.95043238 0.298943845,9.95043238 C0.0878133215,10.0665721 -0.0289054331,10.3017192 0.00625081827,10.5400648 C0.0414070697,10.7784655 0.220993474,10.969881 0.456664439,11.0201751 C0.557114811,11.0415721 2.94787777,11.5447891 5.65893487,11.5447891 C5.65915545,11.5447891 5.65912788,11.5447891 5.65940362,11.5447891 C7.65876031,11.5447891 9.30732656,11.2687504 10.5587512,10.7243387 C11.356481,10.3772982 12.0014535,9.91591032 12.4756907,9.35296912 C13.0124921,8.71579998 13.3360675,7.94509223 13.4374554,7.06213263 C13.4438249,7.00850212 13.5192936,6.36198555 13.5055069,5.55394324 Z"/>
        <path fill="#663A00" d="M13.4287697,4.47978878 L13.4287697,4.47978878 C13.3575749,5.33589176 13.2147164,6.00383296 13.2023635,6.06052414 C12.999119,7.01903521 12.5637329,7.83118597 11.9081998,8.47455916 C11.3290454,9.04298749 10.5731446,9.48217869 9.66145341,9.77994524 C8.2312971,10.2470684 6.39319041,10.378346 4.19888885,10.1700556 C4.19861312,10.170028 4.19864069,10.170028 4.19839253,10.170028 C3.03564432,10.0596236 1.93526744,9.87002797 1.01880601,9.67795075 C0.567179149,9.85260149 0.298888698,9.95043238 0.298888698,9.95043238 C0.0877581744,10.0665721 -0.0289605802,10.3017192 0.00619567121,10.5400648 C0.0413519226,10.7784655 0.220938327,10.969881 0.456609292,11.0201751 C0.557059664,11.0415721 2.94782263,11.5447891 5.65887972,11.5447891 C5.65910031,11.5447891 5.65907273,11.5447891 5.65934847,11.5447891 C7.65870517,11.5447891 9.30727141,11.2687504 10.5586961,10.7243387 C11.3564259,10.3772982 12.0013984,9.91591032 12.4756355,9.35296912 C13.012437,8.71579998 13.3360124,7.94509223 13.4374002,7.06213263 C13.4438525,7.00852969 13.5192936,6.36204069 13.5055069,5.55394324 C13.4988892,5.16661785 13.4731907,4.80835497 13.4287697,4.47978878 Z"/>
        <path fill="#CC7400" d="M0.897675486,6.57143408 C0.362473259,4.3316362 1.74432074,2.08204972 3.98411862,1.54687506 C6.78387976,0.877858491 9.59582841,2.60517474 10.264845,5.40493588 C10.264845,5.40493588 9.26734494,7.44248191 6.84382462,7.24257382 C6.57170145,8.10871356 5.86457826,8.81426506 4.91737234,9.04061617 C3.12547888,9.46877795 1.32583727,8.36327239 0.897675486,6.57143408 Z"/>
        <path fill="#AA6100" d="M5.01950469,2.30164531 C6.33950475,1.98625927 7.66204156,2.20364898 8.76161881,2.81481629 C7.52651766,1.6582997 5.75298818,1.12417284 3.9841462,1.54684749 C1.74432074,2.08202214 0.362473259,4.33160863 0.897675486,6.57140651 C1.14346594,7.60009221 1.84137957,8.40239923 2.73026747,8.81834594 C2.35256525,8.41144335 2.07126009,7.90469701 1.93303398,7.32623191 C1.39785933,5.08643403 2.77970681,2.83684754 5.01950469,2.30164531 Z"/>
        <path fill="#663A00" d="M2.66180239,6.38909033 C2.53187592,5.84531273 2.62143475,5.2834469 2.9141002,4.80703144 C3.20679322,4.33064355 3.6673539,3.99670053 4.21118665,3.86677405 C5.58536869,3.53840088 6.97052499,4.38923731 7.29889817,5.76347449 C7.41652685,6.25574473 7.41376949,6.76720615 7.29258383,7.25440286 C7.1500011,7.25881463 7.00182095,7.25539551 6.84779521,7.24284955 C6.97626029,6.79524843 6.98709668,6.32021165 6.87804337,5.86403516 C6.60512057,4.72188438 5.45387052,4.01470604 4.31169217,4.28762885 C3.88027671,4.3906987 3.51487228,4.65559761 3.2827583,5.03352042 C3.05061675,5.41144323 2.97950461,5.85714178 3.08260204,6.28855724 C3.24727117,6.97775763 3.94198627,7.40448559 4.63118666,7.23981646 C4.74738152,7.21204992 4.86410028,7.2837411 4.89189439,7.39996353 C4.91966094,7.51615839 4.84794219,7.63284957 4.73174733,7.66067126 C3.81051568,7.88076318 2.88192189,7.31034956 2.66180239,6.38909033 Z"/>
      </g>
    </g>
    <path fill="#AA6100" d="M2.50566186 3.16974277C2.39991737 3.16974277 2.30746333 3.09215086 2.29182914 2.98442107 2.20414531 2.37918208 1.93701294 1.83570779 1.49795962 1.36905336 1.41606623 1.2820313 1.42025741 1.14510115 1.5072519 1.06323534 1.59424639.981314377 1.73117654.985505554 1.81306992 1.07252762 2.31421884 1.60513793 2.6193751 2.22750009 2.72007364 2.92232548 2.7371968 3.04058836 2.65522069 3.15033101 2.53698539 3.16748174 2.52645231 3.16899829 2.51597436 3.16974277 2.50566186 3.16974277zM1.03111217.900992683C.988400775.900992683.945220626.888364006.907500036.862031284.492077225.572123184.148648903.446636047.145229785.445395238.0328400748.404862148-.0254227951.280891555.0151378682.168474271.0556985316.0560569875.179751845-.00215073538.292058835.0383823545.308244498.0442003694.693198557.184880522 1.15511034.507215094 1.25307909.575569876 1.27709564.710459587 1.20871328.808428341 1.16666365.868731652 1.09941181.900992683 1.03111217.900992683z" transform="translate(7.535 5.254)"/>
  </g>
</svg>
